<svg width="37" height="37" viewBox="0 0 37 37" fill="none" xmlns="http://www.w3.org/2000/svg">
<path fill-rule="evenodd" clip-rule="evenodd" d="M0 8C0 3.58172 3.58172 0 8 0H29C33.4183 0 37 3.58172 37 8V29C37 33.4183 33.4183 37 29 37H8C3.58172 37 0 33.4183 0 29V8ZM9 18.8218C9 17.9769 9.05556 16.9208 9.16667 15.6535C9.33333 14.3861 9.66667 13.3564 10.1667 12.5644C10.6667 11.7723 11.3056 11.1122 12.0833 10.5842C12.9167 10.0033 13.8056 9.47525 14.75 9L16.9167 11.3762C16.25 11.6403 15.5833 11.9835 14.9167 12.4059C14.25 12.8284 13.75 13.2772 13.4167 13.7525C13.0278 14.3333 12.8056 14.967 12.75 15.6535C12.6944 16.2871 12.6667 16.9472 12.6667 17.6337H17V25H9V18.8218ZM21.1667 15.6535C21.0556 16.9208 21 17.9769 21 18.8218V25H29V17.6337H24.6667C24.6667 16.9472 24.6944 16.2871 24.75 15.6535C24.8056 14.967 25.0278 14.3333 25.4167 13.7525C25.75 13.2772 26.25 12.8284 26.9167 12.4059C27.5833 11.9835 28.25 11.6403 28.9167 11.3762L26.75 9C25.8056 9.47525 24.9167 10.0033 24.0833 10.5842C23.3056 11.1122 22.6667 11.7723 22.1667 12.5644C21.6667 13.3564 21.3333 14.3861 21.1667 15.6535Z" fill="#3136B0"/>
</svg>
